<svg width="600" height="600" viewBox="0 0 600 600" fill="none" xmlns="http://www.w3.org/2000/svg">
<g clip-path="url(#clip0)">
<path d="M675 675H-75V-75H675V675Z" fill="url(#paint0_linear)"/>
<path d="M360.996 403.874H308.184V356.576H360.996V403.874ZM414.113 320.069H340.054V380.225H414.113V320.069ZM377.082 441.95H442.881V362.639H377.082V441.95ZM400.757 434.192H334.59V491.191H400.757V434.192ZM580.44 284.416H490.23V387.501H580.44V284.416ZM478.458 331.108H456.605V356.576H478.458V331.108ZM544.531 252.277H456.605V304.426H544.531V252.277ZM442.881 270.468H395.532V335.958H442.881V270.468ZM334.59 275.32H308.184V303.213H334.59V275.32ZM299.325 320.069H258.501V382.71H299.325V320.069V320.069ZM347.338 441.95H275.708V521.511H347.338V441.95ZM308.184 576.086H388.617V528.788H308.184V576.086ZM500.311 557.894H443.791V599.129H500.313V557.894H500.311ZM637.361 516.659H585.062V578.511H637.361V516.659ZM551.302 544.718H506.381V585.953H551.302V544.718ZM594.357 463.296H528.843V537.278H594.357V463.296ZM610.791 590.639H528.843V644H610.791V590.639ZM340.054 557.894H251.187V637.937H340.052V557.894H340.054ZM630.216 356.576H569.818V403.874H630.216V356.576ZM594.357 424.49H568.208V451.477H594.357V424.49ZM251.187 474.697H300.975V404.294H251.187V474.697ZM321.764 249.852L232 252.277V320.069H321.764V249.852ZM646 252.277H587.725V326.256H646V252.277ZM371.858 245H347.338V298.361H371.858V245ZM641.143 437.983H581.281V486.494H641.143V437.983Z" fill="url(#paint1_linear)" stroke="#FFC700" stroke-width="1.5"/>
<path d="M115.996 319.874H63.1843V272.576H115.996V319.874ZM169.113 236.069H95.0537V296.225H169.113V236.069ZM132.082 357.95H197.881V278.639H132.082V357.95ZM155.757 350.192H89.5904V407.191H155.757V350.192ZM335.44 200.416H245.23V303.501H335.44V200.416ZM233.458 247.108H211.605V272.576H233.458V247.108ZM299.531 168.277H211.605V220.426H299.531V168.277ZM197.881 186.468H150.532V251.958H197.881V186.468ZM89.5904 191.32H63.1843V219.213H89.5904V191.32ZM54.3246 236.069H13.5008V298.71H54.3246V236.069V236.069ZM102.338 357.95H30.7084V437.511H102.338V357.95ZM63.1843 492.086H143.617V444.788H63.1843V492.086ZM255.311 473.894H198.791V515.129H255.313V473.894H255.311ZM392.361 432.659H340.062V494.511H392.361V432.659ZM306.302 460.718H261.381V501.953H306.302V460.718ZM349.357 379.296H283.843V453.278H349.357V379.296ZM365.791 506.639H283.843V560H365.791V506.639ZM95.0537 473.894H6.18721V553.937H95.0519V473.894H95.0537ZM385.216 272.576H324.818V319.874H385.216V272.576ZM349.357 340.49H323.208V367.477H349.357V340.49ZM6.18721 390.697H55.9745V320.294H6.18721V390.697ZM76.7643 165.852L-13 168.277V236.069H76.7643V165.852ZM401 168.277H342.725V242.256H401V168.277ZM126.858 161H102.338V214.361H126.858V161ZM396.143 353.983H336.281V402.494H396.143V353.983Z" fill="url(#paint2_linear)" stroke="#FFC700" stroke-width="1.5"/>
<rect x="504" y="328.706" width="8.86149" height="25.1423" fill="white"/>
<rect x="521.753" y="328.857" width="8.83104" height="25.1423" fill="white"/>
<rect x="512.861" y="320" width="8.89195" height="8.85765" fill="white"/>
<rect x="539.416" y="328.857" width="8.89195" height="25.1423" fill="white"/>
<rect x="530.584" y="320" width="8.83105" height="8.85765" fill="white"/>
<rect x="548.308" y="320" width="8.86149" height="8.85765" fill="white"/>
<rect x="557.169" y="327.792" width="8.83104" height="8.85766" fill="white"/>
<rect x="548.308" y="336.65" width="8.86149" height="8.82721" fill="white"/>
<rect x="40" y="390.425" width="7.57515" height="21.4449" fill="white"/>
<rect x="55.1763" y="390.555" width="7.54912" height="21.4449" fill="white"/>
<rect x="47.5752" y="383" width="7.60118" height="7.55506" fill="white"/>
<rect x="70.2744" y="390.555" width="7.60118" height="21.4449" fill="white"/>
<rect x="62.7256" y="383" width="7.54912" height="7.55506" fill="white"/>
<rect x="77.876" y="383" width="7.57515" height="7.55506" fill="white"/>
<rect x="85.4507" y="389.646" width="7.54912" height="7.55506" fill="white"/>
<rect x="77.876" y="397.202" width="7.57515" height="7.52909" fill="white"/>
<path d="M405.132 203.953L186.189 191.496C186.189 191.496 131.02 593.878 131.02 606.455C131.02 606.455 353.023 608.039 447.652 606.455C445.883 589.031 405.132 203.953 405.132 203.953Z" fill="#96420C"/>
<path d="M491.549 553.359C478.33 531.009 461.903 527.015 448.362 522.696C434.45 518.26 405.796 515.704 390.168 512.575C375.074 509.554 339.225 499.837 338.816 482.898C338.394 465.15 348.257 394.689 348.257 394.689H234.442C234.442 394.689 244.315 465.148 243.89 482.898C243.486 499.837 207.63 509.554 192.534 512.575C176.904 515.704 148.254 518.26 134.342 522.696C120.797 527.015 104.366 531.006 91.1464 553.359C83.1287 566.912 77.9272 588.855 77.9272 613.058H504.777C504.775 588.855 499.582 566.912 491.549 553.359Z" fill="#F3D4CF"/>
<path d="M338.816 482.9C344.306 506.947 378.784 513.039 396.667 516.619C444.873 526.254 470.974 527.915 489.732 559.61C496.119 570.426 501.743 594.514 502.85 612.752C506.887 613.393 504.018 574.398 491.549 553.359C470.114 517.116 427.546 520.058 390.168 512.577C375.074 509.556 339.225 499.84 338.816 482.9ZM244.46 482.9C244.051 499.84 208.202 509.556 193.109 512.577C155.731 520.058 113.162 517.116 91.7274 553.359C79.2585 574.4 76.3894 613.393 80.4268 612.752C81.5336 594.514 87.1574 570.426 93.5448 559.61C112.3 527.915 138.404 526.254 186.609 516.619C204.493 513.039 238.971 506.944 244.46 482.9Z" fill="#FFF4F3"/>
<path d="M184.278 530.58C184.278 530.58 247.296 531.238 257.927 534.727C263.019 536.395 276.348 547.121 276.348 547.121C276.348 547.121 261.923 540.146 257.298 538.853C246.554 535.851 184.278 530.58 184.278 530.58ZM291.187 553.652C295.704 553.561 308.54 545.293 308.54 545.293C308.54 545.293 296.276 549.823 292.386 550.045C289.105 550.235 278.379 547.321 278.379 547.321C278.379 547.321 287.484 553.724 291.187 553.652ZM329.06 537.717C343.911 533.717 394.596 530.61 394.596 530.61C394.596 530.61 342.25 529.475 327.467 534.406C322.512 536.06 310.828 545.759 310.828 545.759C310.828 545.759 324.171 539.031 329.06 537.717Z" fill="#E4B3AB"/>
<path d="M491.549 553.359C470.116 517.119 427.473 520.043 390.168 512.578C375.074 509.557 339.225 499.84 338.816 482.901C338.394 465.153 348.257 394.692 348.257 394.692H234.442C234.442 394.692 244.315 465.151 243.89 482.901C243.486 499.84 207.63 509.557 192.534 512.578C176.904 515.706 148.254 518.263 134.342 522.699C120.797 527.018 104.366 531.009 91.1464 553.362C83.1287 566.915 77.9272 588.858 77.9272 613.061H504.777C504.775 588.856 499.582 566.913 491.549 553.359Z" stroke="#C5796D" stroke-width="4.5"/>
<path d="M291.642 489.857C308.096 489.857 323.713 484.07 337.582 475.423C338.653 456.268 343.558 418.672 345.769 402.307C313.271 398.844 269.297 398.863 236.938 402.366C239.14 418.659 243.989 455.81 245.103 475.049C259.123 483.905 274.956 489.857 291.642 489.857Z" fill="url(#paint3_linear)"/>
<path d="M74.2746 612.645C74.0765 610.233 74.4704 599.126 74.6464 595.725C77.5177 542.481 95.3354 531.211 168.133 509.659C203.315 499.248 213.135 495.866 225.657 469.265C229.208 461.718 232.277 455.199 238.882 452.886C272.522 471.432 301.528 470.84 343.21 455.401C350.946 456.481 353.324 466.354 355.122 473.481C366.682 517.521 437.865 507.578 469.856 525.743C503.06 542.113 504.572 596.878 504.249 613.272C504.255 613.318 504.26 613.358 504.262 613.395C461.069 615.223 128.115 616.11 74.2746 612.645Z" fill="#92002A"/>
<path d="M460.586 590.452C462.45 567.865 463.009 550.161 469.733 529.219C459.995 561.68 472.98 587.205 453.746 604.959C456.16 599.157 459.992 597.654 460.586 590.452ZM124.418 560.254C120.88 551.589 116.339 543.961 114.64 530.322C114.024 530.617 113.773 528.944 113.175 529.239C115.619 553.655 123.595 563.812 126.024 599.271C125.641 586.562 127.793 568.523 124.418 560.254ZM338.853 457.445C337.575 457.762 336.292 459.161 335.002 459.423C353.003 475.868 341.192 482.077 367.502 510.957C368.235 510.59 370.616 509.272 373.483 507.606C356.147 497.791 352.25 473.425 338.853 457.445ZM348.844 509.648C349.828 512.601 351.267 515.109 352.935 517.576C351.929 517.958 350.937 518.372 349.92 518.724C344.721 511.963 339.729 505.228 336.413 491.245C332.985 476.809 334.468 478.959 323.343 463.187C324.045 463.088 325.442 462.283 326.529 462.107C337.057 476.695 341.381 492.856 348.844 509.648ZM365.828 511.859C364.77 512.409 363.696 512.933 362.622 513.455C347.848 498.051 342.019 478.99 332.188 461.113C332.864 460.983 334.184 459.313 334.802 459.185C343.524 468.459 343.487 473.058 346.136 481.322C349.588 491.668 358.972 505.003 365.828 511.859ZM316.307 465.698C324.208 486.07 329.379 502.156 330.818 523.758C329.786 523.945 328.756 524.132 327.722 524.291C326.292 513.003 324.441 501.272 323.896 498.572C321.713 487.758 317.777 473.309 314.212 465.964C314.912 465.892 315.607 465.782 316.307 465.698ZM348.006 519.386C346.785 519.793 345.553 520.161 344.318 520.528C331.361 504.422 331.599 483.359 321.411 462.857C321.812 462.802 322.435 462.767 322.833 462.708C334.142 481.874 330.534 476.345 335.66 495.778C338.347 505.936 343.896 515.069 348.006 519.386ZM325.761 524.577C324.949 524.693 324.12 524.773 323.297 524.869C320.351 503.287 319.167 486.273 311.334 466.23C311.882 466.182 312.432 466.149 312.978 466.094C320.069 483.516 322.949 508.222 325.761 524.577ZM272.013 466.444C264.825 486.191 263.298 501.617 261.923 522.445C261.111 522.306 260.291 522.174 259.492 522.025C260.11 504.297 262.59 482.281 270.273 466.292C270.852 466.351 271.433 466.391 272.013 466.444ZM237.487 516.016C236.565 515.681 235.634 515.362 234.715 515.008C245.839 501.307 250.939 478.679 252.295 461.055C253.025 461.234 253.754 461.385 254.484 461.553C255.01 482.347 247.443 498.275 237.487 516.016ZM269.149 466.182C260.341 481.907 257.49 503.749 257.861 521.694C257.16 521.556 256.502 521.393 255.815 521.248C255.074 500.211 257.699 483.731 267.052 465.678C267.756 465.766 268.436 466.109 269.149 466.182ZM217.192 507.47C216.032 506.907 214.873 506.348 213.724 505.767C219.9 501.65 226.162 495.401 230.358 488.231C234.134 481.784 242.704 462.646 244.462 456.459C245.054 456.688 245.657 456.875 246.257 457.08C241.718 476.93 232.03 495.027 217.192 507.47ZM233.351 514.5C232.121 514.027 230.917 513.496 229.696 512.999C240.132 496.154 244.854 477.326 246.977 457.295C248.328 457.742 249.683 460.371 251.041 460.728C247.918 479.96 244.625 498.341 233.351 514.5ZM243.736 456.193C242.306 460.197 240.347 464.004 238.345 467.878C233.577 477.513 228.785 493.395 212.316 505.019C211.124 504.411 209.94 503.778 208.756 503.14C223.918 490.603 231.813 472.048 239.899 454.937C241.137 455.403 242.418 455.667 243.736 456.193Z" fill="#830026"/>
<path d="M204.006 503.377L199.764 500.539C162.78 514.922 107.078 520.066 85.3509 555.82C77.1681 569.284 74.541 588.855 74.541 613.058C79.0009 600.99 76.211 581.288 89.1419 561.81C114.3 523.908 159.119 527.954 204.006 503.377ZM489.734 561.81C500.882 582.36 499.873 600.99 504.335 613.058C504.335 588.855 499.316 570.474 493.525 555.82C477.06 514.163 420.496 518.876 383.512 504.493L379.27 507.331C424.157 531.908 463.705 513.833 489.734 561.81Z" fill="#A1103A"/>
<path d="M469.967 525.547C438.072 507.441 366.819 517.177 355.333 473.423C353.896 467.83 351.588 456.345 343.166 455.183C342.752 455.265 341.491 454.899 341.494 454.899C308.323 467.837 273.627 471.687 238.808 452.675C223.162 458.16 227.435 486.22 197.861 499.364C184.967 505.204 167.937 509.034 143.735 516.922C87.0076 535.426 76.7082 553.405 74.4265 595.713C74.2659 598.816 73.8259 610.805 74.0745 612.853C133.743 616.741 473.258 614.983 504.467 613.602C504.489 613.492 504.489 613.382 504.467 613.274C505.1 581.535 498.075 539.404 469.967 525.547ZM344.002 456.455C359.85 461.762 342.174 486.059 378.854 504.401C374.011 507.38 368.669 510.374 367.503 510.957C341.192 482.077 353.327 477.859 336.319 460.081C339.469 458.659 341.054 457.379 344.002 456.455ZM335.461 460.281C344.182 469.555 343.487 473.058 346.138 481.322C349.588 491.67 358.972 505.006 365.828 511.862C360.702 514.526 355.377 516.836 349.923 518.727C344.724 511.965 340.224 505.164 336.635 491.247C333.471 478.985 334.576 478.006 324.004 463.41C326.202 463.097 331.993 460.992 335.461 460.281ZM323.053 463.581C334.363 482.748 330.534 476.343 335.661 495.776C338.345 505.936 343.894 515.07 348.004 519.384C341.381 521.585 334.583 523.235 327.718 524.289C326.288 513.001 324.607 501.278 324.109 498.57C321.909 486.57 317.77 473.307 314.206 465.962C317.027 465.678 320.261 464.002 323.053 463.581ZM312.978 466.094C320.07 483.516 322.95 508.22 325.762 524.577C319.289 525.497 312.422 525.831 306.006 525.831C306.003 525.776 301.832 491.047 300.195 468.268C304.657 467.608 309.348 467.1 312.978 466.094ZM299.095 468.312C299.205 494.004 301.198 500.682 304.397 525.853C296.721 525.875 289.062 525.525 281.385 524.863C286.588 481.716 289.196 468.466 289.196 468.466C293.249 468.466 296.925 468.385 299.095 468.312ZM287.829 468.466C281.721 502.24 280.674 510.412 279.952 524.731C272.936 524.141 266.036 523.261 259.49 522.025C260.108 504.297 262.588 482.281 270.271 466.292C276.102 466.886 281.977 468.444 287.829 468.466ZM269.149 466.182C260.342 481.907 257.49 503.749 257.862 521.695C249.34 519.998 242.016 517.827 234.715 515.006C245.84 501.305 250.94 478.677 252.295 461.053C257.846 462.409 263.717 464.979 269.149 466.182ZM251.041 460.728C247.919 479.96 244.625 498.343 233.351 514.5C226.662 511.925 220.105 508.999 213.725 505.765C219.901 501.648 226.163 495.399 230.359 488.229C234.134 481.782 242.484 463.082 244.242 456.895C246.399 457.731 248.841 460.153 251.041 460.728ZM238.368 454.211C240.062 455.247 241.646 455.885 243.516 456.633C242.086 460.638 240.348 464.006 238.346 467.879C233.578 477.514 228.786 493.395 212.317 505.019C209.258 503.457 206.222 501.807 203.252 500.068C228.728 486.334 224.425 460.534 238.368 454.211ZM75.0426 612.301C75.3418 603.509 76.9942 576.391 82.9415 562.993C88.9482 549.464 100.544 540.133 113.481 533.246C112.597 553.975 122.687 556.544 123.382 581.322C123.58 588.824 124.614 596.195 125.869 603.588C125.296 595.821 125.054 588.12 125.098 580.331C125.226 557.785 115.021 553.882 115.021 532.412C131.369 524.091 150.153 518.735 168.73 513.136C179.599 509.881 190.6 506.471 200.765 501.344C229.773 520.469 256.76 530.562 304.947 530.276C339.872 530.276 360.216 521.246 381.736 505.833C410.667 519.204 448.021 517.45 468.558 529.838C464.917 540.674 462.418 546.327 461.738 552.236C460.164 566.142 462.501 576.03 460.503 588.805C459.337 596.22 453.638 601.676 452.098 608.959C456.578 595.313 464.66 600.312 463.674 568.142C463.108 550.001 464.721 549.532 469.788 530.586C495.06 546.426 501.562 583.647 502.992 613.271C429.863 612.79 103.879 612.917 75.0426 612.301Z" fill="#64001D"/>
<path d="M291.642 115.51C217.667 115.393 157.831 174.987 157.717 248.641C157.699 260.337 159.189 271.684 162.014 282.501H162.023C162.047 282.617 181.194 367.446 193.968 393.286C207.331 420.316 246.365 464.039 291.642 464.039C336.928 464.039 375.956 420.316 389.316 393.286C402.088 367.448 421.235 282.619 421.261 282.501H421.272C424.095 271.684 425.587 260.34 425.567 248.641C425.455 174.987 365.617 115.393 291.642 115.51Z" fill="#F3D4CF"/>
<path d="M337.302 123.4C384.478 143.941 417.415 190.798 417.501 245.413C417.519 257.109 416.029 268.456 413.204 279.273H413.193C413.169 279.389 394.022 364.218 381.248 390.06C368.686 415.468 333.704 460.345 291.642 460.345C249.58 460.345 214.598 415.468 202.037 390.06C189.262 364.22 170.118 279.391 170.091 279.273H170.082C167.257 268.456 165.765 257.112 165.785 245.413C165.869 190.798 198.807 143.941 245.985 123.4C194.529 141.908 157.807 190.959 157.717 248.638C157.699 260.335 159.189 271.682 162.014 282.498H162.023C162.047 282.615 181.194 367.443 193.968 393.283C207.331 420.313 246.365 464.037 291.642 464.037C336.921 464.037 375.954 420.313 389.316 393.283C402.088 367.446 421.235 282.617 421.261 282.498H421.272C424.095 271.682 425.587 260.337 425.567 248.638C425.479 190.959 388.757 141.908 337.302 123.4Z" fill="#EBC3BD"/>
<path d="M291.642 115.51C217.667 115.393 157.831 174.987 157.717 248.641C157.699 260.337 159.189 271.684 162.014 282.501H162.023C162.047 282.617 181.194 367.446 193.968 393.286C207.331 420.316 246.365 464.039 291.642 464.039C336.928 464.039 375.956 420.316 389.316 393.286C402.088 367.448 421.235 282.619 421.261 282.501H421.272C424.095 271.684 425.587 260.34 425.567 248.641C425.455 174.987 365.617 115.393 291.642 115.51Z" stroke="#C5796D" stroke-width="4.5"/>
<path d="M291.344 424.03C282.194 424.03 275.375 414.575 275.375 414.575C291.351 421.88 308.192 414.575 308.192 414.575C308.192 414.575 299.373 424.03 291.344 424.03Z" fill="url(#paint4_linear)"/>
<path d="M318.32 403.91C318.32 405.286 301.218 411.515 291.35 411.776C282.153 412.023 264.214 405.875 264.214 403.91C264.214 401.948 278.386 400.482 292.221 400.482C306.061 400.485 318.32 401.95 318.32 403.91Z" fill="white"/>
<path d="M281.606 394.912C283.784 394.623 287.608 396.909 292.22 396.912C295.611 396.916 299.758 394.564 302.368 394.912C307.932 395.662 310.854 399.052 325.451 400.346C325.451 400.346 318.366 402.729 316.485 402.876C310.5 403.352 300.61 402.505 291.65 402.478C281.626 402.434 271.978 403.424 265.914 403.14C263.727 403.028 257.243 400.639 257.243 400.639C269.417 400.067 275.239 395.752 281.606 394.912ZM257.245 401.435C257.245 401.435 267.177 409.22 271.003 411.909C275.419 415.013 282.068 419.88 291.848 419.735C299.688 419.607 306.46 415.739 310.5 413.165C314.852 410.395 325.453 401.145 325.453 401.145C319.358 402.538 319.358 402.538 316.487 403.673C310.456 406.058 300.035 409.662 291.903 409.662C281.864 409.662 272.242 406.056 265.916 403.935C261.527 402.465 257.245 401.435 257.245 401.435Z" fill="#C90433" stroke="#BA002C" stroke-width="2.25"/>
<path d="M325.944 400.894C324.936 402.353 321.235 402.467 319.59 403.044C317.174 403.886 314.833 404.927 312.419 405.783C306.494 407.882 300.295 409.726 293.992 410.14C282.251 410.912 270.671 406.161 259.677 402.637C258.744 402.337 257.49 402.252 256.686 401.649C255.969 401.112 256.653 399.959 257.426 400.106C259.738 400.544 262.029 401.715 264.337 402.293C267.03 402.971 270.02 402.645 272.768 402.542C276.271 402.412 279.774 402.221 283.279 402.087C289.719 401.847 296.133 401.97 302.571 402.216C308.337 402.439 314.377 403.101 319.986 401.486C321.499 401.048 323.02 400.608 324.489 400.043C325.035 399.834 326.71 399.79 325.944 400.894C326.032 400.769 325.554 401.457 325.944 400.894ZM310.098 403.537C302.584 403.565 295.087 402.907 287.567 403.059C283.444 403.143 279.327 403.365 275.208 403.541C273.963 403.594 271.633 403.226 270.566 403.99C269.54 404.725 273.166 405.765 273.481 405.864C280.755 408.15 288.507 409.781 296.152 408.826C299.902 408.355 303.594 407.435 307.204 406.34C308.612 405.911 310.37 405.589 311.576 404.705C312.837 403.779 310.683 403.537 310.098 403.537C312.522 403.532 307.772 403.545 310.098 403.537Z" fill="#9B0025"/>
<path d="M291.42 417.537C282.255 417.537 274.995 412.247 268.022 406.973C284.995 412.716 299.314 412.632 316.029 406.212C308.962 411.977 300.911 417.446 291.42 417.537ZM277.558 400.687C289.807 400.111 301.985 401.189 314.208 400.79C310.144 399.794 306.236 397.653 302.08 397.092C298.885 396.779 295.514 399.112 292.22 399.112C288.627 399.109 285.371 397.092 281.897 397.092C277.443 397.686 273.265 399.796 268.957 400.988C271.826 400.94 274.693 400.839 277.558 400.687C274.431 400.83 281.668 400.493 277.558 400.687Z" fill="#D81A47"/>
<path d="M280.931 412.905C284.443 413.607 288.115 414.061 291.904 414.061C295.101 414.061 298.568 413.572 302.021 412.822C298.975 414.195 295.479 415.312 291.781 415.332C287.86 415.356 283.873 414.311 280.931 412.905Z" fill="#E8335E"/>
<path d="M204.961 300.274C226.579 278.56 248.975 282.199 261.62 297.377C263.165 300.398 263.814 303.678 263.545 306.932C263.134 311.868 259.094 316.728 257.248 317.683C252.053 320.369 246.388 321.956 240.643 322.281C238.434 322.407 237.129 322.455 235.232 322.281C231.472 321.936 228.313 321.153 224.561 319.612C218.412 317.087 212.605 312.763 207.67 306.305C207.597 306.213 207.492 306.158 207.379 306.156C207.267 306.153 207.159 306.204 207.085 306.292L206.889 306.53C206.779 306.662 206.77 306.842 206.843 306.994C206.288 306.237 205.791 305.478 205.362 304.715C205.377 304.723 205.386 304.728 205.401 304.737C204.385 302.902 204.431 301.049 204.961 300.274Z" fill="url(#paint5_radial)"/>
<path d="M255.334 303.927C255.334 314.253 246.96 322.625 236.632 322.625C226.304 322.625 217.93 314.253 217.93 303.927C217.93 293.592 226.304 285.22 236.632 285.22C246.96 285.22 255.334 293.592 255.334 303.927Z" fill="#724D1D" stroke="#442600" stroke-width="1.5"/>
<path d="M225.758 312.668C228.488 312.442 226.07 311.714 226.07 311.714C224.721 310.985 222.18 309.867 222.18 308.84C222.18 305.625 226.585 304.794 222.074 303.524C217.388 299.223 225.711 299.313 225.65 299.168C222.611 291.762 226.581 295.828 228.253 293.641C234.449 285.539 229.98 294.472 233.344 293.641C234.563 293.341 230.913 288.868 233.45 289.495C235.129 289.907 235.511 291.302 235.511 291.302C236.737 291.062 238.653 289.176 238.653 289.176C240.988 289.88 242.627 293.196 241.905 292.576C243.054 292.437 244.66 291.887 245.914 291.513C245.914 291.513 246.134 290.769 246.345 291.41C249.206 299.704 256.581 299.11 248.088 301.507C248.088 301.507 247.54 301.507 249.281 302.886C257.727 309.632 242.728 307.544 250.684 310.646C251.008 310.325 245.916 313.656 245.916 314.578C245.916 316.14 242.667 320.246 239.85 318.629C238.279 317.731 238.04 320.499 237.115 319.221C235.305 316.717 231.687 319.113 233.025 316.811C235.001 315.19 230.988 317.447 230.209 317.447C227.63 317.447 233.584 308.774 242.345 315.219C244.909 317.095 239.652 310.752 244.295 310.752C244.759 310.904 244.62 309.126 244.62 308.627C242.205 308.153 248.953 308.616 248.953 304.692C249.377 304.778 250.539 303.603 243.857 304.692C243.857 304.692 243.644 302.354 243.751 301.929C244.095 300.565 247.536 301 246.568 299.59C246.565 299.588 244.077 294.591 244.077 294.591C236.057 293.302 240.64 292.496 235.626 293.528C235.388 294.706 224.886 299.713 225.221 302.035C225.533 304.224 231.815 304.957 225.87 308.836C234.777 325.903 219.289 308.457 225.758 312.668Z" fill="#815D2E"/>
<path d="M236.632 287.559L237.166 301.251L242.894 288.807L238.145 301.656L248.205 292.351L238.9 302.406L251.754 297.66L239.312 303.39L253.002 303.922L239.312 304.455L251.754 310.184L238.9 305.438L248.205 315.494L238.145 306.189L242.894 319.038L237.166 306.593L236.632 320.288L236.097 306.596L230.367 319.04L235.111 306.191L225.056 315.496L234.361 305.441L221.507 310.187L233.95 304.457L220.266 303.925L233.95 303.392L221.507 297.663L234.361 302.409L225.056 292.353L235.111 301.658L230.367 288.809L236.097 301.253L236.632 287.559Z" fill="#724D1D" stroke="#633E0F" stroke-width="1.5"/>
<path d="M239.114 291.665L237.433 301.999L243.611 293.548L238.108 302.453L247.052 297.005L238.562 303.128L248.907 301.522L238.716 303.925L248.894 306.4L238.555 304.723L247.008 310.902L238.097 305.401L243.545 314.343L237.422 305.85L239.028 316.195L236.625 306.004L234.148 316.18L235.829 305.845L229.644 314.297L235.153 305.39L226.212 310.838L234.704 304.715L224.359 306.321L234.548 303.916L224.372 301.441L234.707 303.115L226.253 296.937L235.164 302.437L229.719 293.495L235.84 301.988L234.234 291.645L236.643 301.837L239.114 291.665Z" fill="#724D1D" stroke="#533105" stroke-width="1.5"/>
<path opacity="0.9" d="M243.646 303.925C243.646 307.799 240.504 310.937 236.632 310.937C232.759 310.937 229.62 307.797 229.62 303.925C229.62 300.052 232.762 296.91 236.634 296.91C240.506 296.91 243.646 300.05 243.646 303.925Z" fill="black"/>
<path opacity="0.7" d="M229.267 317.364C228.235 318.396 226.196 318.033 224.715 316.55C223.232 315.069 222.867 313.029 223.901 311.997C224.933 310.965 226.972 311.329 228.453 312.812C229.934 314.294 230.301 316.33 229.267 317.364Z" fill="white"/>
<path opacity="0.9" d="M251.613 300.241C250.069 301.788 246.324 300.554 243.252 297.48C240.181 294.409 238.944 290.666 240.491 289.119C242.038 287.572 245.78 288.807 248.852 291.881C251.923 294.952 253.158 298.697 251.613 300.241Z" fill="white"/>
<path d="M193.727 305.025C193.727 335.406 211.952 360.029 234.432 360.029C256.912 360.029 275.137 335.406 275.137 305.025C275.137 274.641 256.912 250.016 234.432 250.016C211.952 250.016 193.727 274.641 193.727 305.025ZM205.366 304.717C205.382 304.725 205.391 304.73 205.406 304.739C204.385 302.901 204.433 301.049 204.964 300.274C226.581 278.56 248.978 282.199 261.623 297.377C263.167 300.398 263.816 303.678 263.548 306.932C263.136 311.868 259.097 316.728 257.251 317.683C252.056 320.369 246.39 321.956 240.645 322.281C238.436 322.407 237.131 322.455 235.235 322.281C231.475 321.936 228.315 321.153 224.564 319.612C218.414 317.087 212.607 312.763 207.672 306.305C207.6 306.213 207.494 306.158 207.382 306.156C207.27 306.153 207.162 306.204 207.087 306.292L206.891 306.53C206.781 306.662 206.772 306.842 206.845 306.994C206.293 306.237 205.795 305.48 205.366 304.717Z" fill="#F3D4CF"/>
<path d="M202.301 300.807C202.352 319.641 219.125 334.821 239.789 334.726C260.448 334.618 277.161 319.276 277.108 300.439C277.057 281.601 260.283 266.417 239.616 266.518C218.953 266.628 202.249 281.97 202.301 300.807ZM205.366 304.717C205.382 304.726 205.391 304.73 205.406 304.739C204.385 302.902 204.433 301.049 204.964 300.274C226.581 278.56 248.978 282.199 261.623 297.377C263.167 300.398 263.816 303.678 263.548 306.932C263.136 311.868 259.097 316.728 257.251 317.683C252.056 320.369 246.39 321.956 240.645 322.281C238.436 322.407 237.131 322.455 235.235 322.281C231.475 321.936 228.315 321.153 224.564 319.612C218.414 317.087 212.607 312.763 207.672 306.305C207.6 306.213 207.494 306.158 207.382 306.156C207.27 306.153 207.162 306.204 207.087 306.292L206.891 306.53C206.781 306.662 206.772 306.842 206.845 306.994C206.293 306.237 205.795 305.48 205.366 304.717Z" fill="url(#paint6_radial)"/>
<path d="M261.64 297.421C263.167 300.431 263.811 303.694 263.545 306.932C263.134 311.868 259.094 316.728 257.248 317.683C252.053 320.369 246.388 321.956 240.643 322.281C238.434 322.407 237.129 322.455 235.232 322.281C231.472 321.936 228.312 321.153 224.561 319.613C218.411 317.087 212.605 312.763 207.67 306.305C207.597 306.213 207.491 306.158 207.379 306.156C207.267 306.154 207.159 306.204 207.084 306.292L206.889 306.53C206.779 306.662 206.77 306.842 206.842 306.994C206.288 306.237 205.791 305.478 205.362 304.715C205.377 304.723 205.386 304.728 205.401 304.737C204.38 302.899 204.429 301.047 204.959 300.272C216.125 289.055 227.496 284.618 237.628 285.027C247.166 285.819 255.64 290.426 261.64 297.421Z" fill="url(#paint7_radial)"/>
<path d="M266.819 290.164C243.466 277.546 228.091 274.956 201.331 292.08C214.321 282.45 234.771 269.605 266.819 290.164Z" fill="#C5796D"/>
<path d="M255.075 318.972L256.874 319.456L252.447 320.006L255.922 321.404C255.922 321.404 251.427 320.942 250.23 321.219C235.538 324.627 220.469 321.665 211.987 313.102C210.922 312.774 208.368 313.333 208.368 313.333L210.911 311.993C210.165 310.607 208.788 310.9 204.341 311.106C206.431 310.433 208.583 309.784 208.412 309.271L206.856 306.873C206.757 306.721 206.772 306.523 206.891 306.387L207.087 306.162C207.16 306.077 207.267 306.028 207.38 306.03C207.494 306.033 207.6 306.083 207.67 306.171C221.257 323.063 241.422 324.763 257.248 316.983L255.075 318.972ZM265.924 295.612C263.697 293.454 262.069 292.303 259.75 291.082C261.453 290.371 263.836 289.953 263.836 289.953L257.026 289.124C243.629 281.792 235.162 281.236 221.083 286.056C219.329 286.657 214.808 285.313 210.86 283.99L215.334 288.292C212.596 288.376 210.478 287.632 207.542 287.062L212.383 289.832C210.293 291.37 208.115 291.262 201.483 291.069L206.86 293.964C204.513 294.853 203.514 294.569 200.299 293.861C201.375 294.97 202.323 295.757 203.595 296.417C201.868 296.527 199.619 296.752 196.609 295.806C198.095 297.344 199.428 298.657 200.473 299.038L198.119 300.006L201.454 301.236L199.137 302.677C201.784 302.778 203.177 303.348 205.406 304.693C204.385 302.948 204.433 301.185 204.964 300.451C228.007 278.457 251.939 283.834 263.994 300.688L262.375 297.731L265.354 300.545L262.621 296.734L265.086 298.046L262.723 294.697L265.924 295.612Z" fill="black"/>
<path d="M378.314 300.274C356.697 278.56 334.3 282.199 321.656 297.377C320.111 300.398 319.462 303.678 319.73 306.932C320.142 311.868 324.181 316.728 326.027 317.683C331.222 320.369 336.888 321.956 342.633 322.281C344.842 322.407 346.147 322.455 348.043 322.281C351.803 321.936 354.963 321.153 358.714 319.612C364.864 317.087 370.671 312.763 375.606 306.305C375.678 306.213 375.784 306.158 375.896 306.156C376.009 306.153 376.116 306.204 376.191 306.292L376.387 306.53C376.497 306.662 376.506 306.842 376.433 306.994C376.988 306.237 377.485 305.478 377.914 304.715C377.899 304.723 377.89 304.728 377.874 304.737C378.891 302.902 378.845 301.049 378.314 300.274Z" fill="url(#paint8_radial)"/>
<path d="M365.346 303.927C365.346 314.25 356.972 322.625 346.644 322.625C336.316 322.625 327.941 314.25 327.941 303.927C327.941 293.592 336.316 285.22 346.644 285.22C356.972 285.22 365.346 293.592 365.346 303.927Z" fill="#724D1D" stroke="#442600" stroke-width="1.5"/>
<path d="M335.772 312.668C338.501 312.442 336.085 311.714 336.085 311.714C334.736 310.987 332.195 309.87 332.195 308.842C332.195 305.628 336.6 304.794 332.089 303.526C327.401 299.223 335.724 299.313 335.665 299.168C332.624 291.762 336.595 295.828 338.265 293.641C344.461 285.539 339.993 294.472 343.357 293.641C344.578 293.341 340.928 288.868 343.462 289.495C345.141 289.905 345.526 291.302 345.526 291.302C346.752 291.062 348.668 289.176 348.668 289.176C351.003 289.88 352.642 293.198 351.92 292.578C353.066 292.439 354.675 291.889 355.927 291.515C355.927 291.515 356.147 290.771 356.358 291.414C359.218 299.709 366.594 299.113 358.098 301.511C358.098 301.511 357.551 301.511 359.291 302.89C367.74 309.634 352.739 307.548 360.695 310.651C361.02 310.327 355.927 313.659 355.927 314.58C355.927 316.145 352.677 320.248 349.861 318.633C348.29 317.733 348.052 320.504 347.126 319.225C345.315 316.721 341.696 319.117 343.036 316.816C345.011 315.194 340.998 317.45 340.219 317.45C337.64 317.45 343.594 308.776 352.356 315.221C354.919 317.1 349.66 310.756 354.305 310.756C354.772 310.908 354.631 309.13 354.631 308.629C352.217 308.158 358.965 308.62 358.965 304.697C359.39 304.78 360.552 303.606 353.87 304.697C353.87 304.697 353.656 302.356 353.764 301.933C354.107 300.571 357.551 301.005 356.58 299.594C356.578 299.592 354.087 294.598 354.087 294.598C346.067 293.306 350.651 292.501 345.638 293.535C345.401 294.712 334.899 299.72 335.233 302.041C335.546 304.228 341.825 304.963 335.882 308.844C344.789 325.903 329.302 308.457 335.772 312.668Z" fill="#815D2E"/>
<path d="M346.644 287.559L347.176 301.249L352.906 288.804L348.158 301.654L358.215 292.351L348.91 302.406L361.764 297.66L349.322 303.39L363.012 303.922L349.322 304.455L361.764 310.184L348.91 305.438L358.215 315.494L348.158 306.191L352.906 319.04L347.176 306.596L346.644 320.288L346.111 306.598L340.38 319.043L345.126 306.193L335.07 315.496L344.375 305.441L331.521 310.187L343.962 304.457L330.278 303.925L343.962 303.392L331.521 297.663L344.375 302.409L335.07 292.353L345.126 301.656L340.38 288.807L346.111 301.251L346.644 287.559Z" fill="#724D1D" stroke="#633E0F" stroke-width="1.5"/>
<path d="M349.126 291.665L347.445 301.999L353.623 293.548L348.12 302.453L357.062 297.007L348.571 303.128L358.917 301.522L348.725 303.927L358.904 306.402L348.565 304.726L357.02 310.904L348.109 305.403L353.557 314.343L347.434 305.85L349.04 316.195L346.637 306.004L344.16 316.18L345.841 305.845L339.654 314.297L345.165 305.392L336.221 310.838L344.714 304.717L334.369 306.323L344.558 303.916L334.384 301.443L344.716 303.117L336.263 296.939L345.174 302.442L339.726 293.502L345.847 301.995L344.241 291.649L346.65 301.841L349.126 291.665Z" fill="#724D1D" stroke="#533105" stroke-width="1.5"/>
<path opacity="0.9" d="M353.658 303.925C353.658 307.799 350.516 310.937 346.644 310.937C342.771 310.937 339.629 307.799 339.629 303.925C339.629 300.052 342.771 296.91 346.644 296.91C350.516 296.91 353.658 300.05 353.658 303.925Z" fill="black"/>
<path opacity="0.7" d="M339.279 317.364C338.245 318.396 336.208 318.033 334.727 316.552C333.244 315.071 332.879 313.029 333.915 311.998C334.947 310.963 336.984 311.329 338.465 312.809C339.946 314.292 340.311 316.332 339.279 317.364Z" fill="white"/>
<path opacity="0.9" d="M361.625 300.241C360.081 301.788 356.338 300.554 353.264 297.482C350.193 294.411 348.958 290.666 350.501 289.121C352.047 287.574 355.792 288.809 358.862 291.88C361.933 294.952 363.172 298.697 361.625 300.241Z" fill="white"/>
<path d="M348.844 250.016C326.364 250.016 308.139 274.641 308.139 305.025C308.139 335.406 326.364 360.029 348.844 360.029C371.324 360.029 389.549 335.406 389.549 305.025C389.549 274.641 371.324 250.016 348.844 250.016ZM376.429 306.996C376.501 306.844 376.492 306.662 376.382 306.532L376.186 306.294C376.112 306.206 376.004 306.156 375.892 306.158C375.779 306.16 375.674 306.215 375.601 306.307C370.666 312.765 364.86 317.089 358.71 319.615C354.958 321.157 351.799 321.938 348.039 322.284C346.142 322.46 344.837 322.411 342.628 322.284C336.883 321.958 331.218 320.371 326.023 317.685C324.177 316.73 320.135 311.87 319.726 306.935C319.457 303.68 320.106 300.4 321.651 297.379C334.296 282.201 356.692 278.564 378.31 300.277C378.84 301.051 378.888 302.904 377.867 304.741C377.883 304.732 377.892 304.728 377.907 304.719C377.48 305.48 376.983 306.237 376.429 306.996Z" fill="#F3D4CF"/>
<path d="M343.66 266.518C322.993 266.419 306.219 281.603 306.168 300.439C306.115 319.274 322.828 334.616 343.487 334.726C364.151 334.821 380.924 319.641 380.975 300.807C381.027 281.97 364.323 266.628 343.66 266.518ZM376.429 306.996C376.501 306.844 376.493 306.662 376.383 306.532L376.187 306.294C376.112 306.206 376.004 306.156 375.892 306.158C375.78 306.16 375.674 306.215 375.602 306.307C370.666 312.765 364.86 317.089 358.71 319.615C354.959 321.157 351.799 321.938 348.039 322.284C346.142 322.46 344.838 322.411 342.629 322.284C336.884 321.958 331.218 320.372 326.023 317.685C324.177 316.73 320.135 311.87 319.726 306.935C319.458 303.68 320.107 300.4 321.651 297.379C334.296 282.201 356.693 278.564 378.31 300.277C378.84 301.051 378.889 302.904 377.868 304.741C377.883 304.732 377.892 304.728 377.907 304.719C377.481 305.48 376.983 306.237 376.429 306.996Z" fill="url(#paint9_radial)"/>
<path d="M321.636 297.421C320.109 300.431 319.464 303.694 319.73 306.932C320.142 311.868 324.181 316.728 326.027 317.683C331.222 320.369 336.888 321.956 342.633 322.281C344.842 322.407 346.147 322.455 348.043 322.281C351.803 321.936 354.963 321.153 358.714 319.613C364.864 317.087 370.671 312.763 375.606 306.305C375.678 306.213 375.784 306.158 375.896 306.156C376.008 306.154 376.116 306.204 376.191 306.292L376.387 306.53C376.497 306.662 376.506 306.842 376.433 306.994C376.988 306.237 377.485 305.478 377.914 304.715C377.899 304.723 377.89 304.728 377.874 304.737C378.895 302.899 378.847 301.047 378.317 300.272C367.15 289.055 355.779 284.618 345.647 285.027C336.109 285.819 327.636 290.426 321.636 297.421Z" fill="url(#paint10_radial)"/>
<path d="M316.457 290.164C339.81 277.546 355.185 274.956 381.945 292.08C368.955 282.45 348.505 269.605 316.457 290.164Z" fill="#C5796D"/>
<path d="M326.028 316.987C341.854 324.77 362.019 323.069 375.606 306.175C375.676 306.087 375.782 306.037 375.896 306.035C376.009 306.032 376.116 306.081 376.189 306.167L376.385 306.391C376.504 306.527 376.519 306.725 376.42 306.877L374.865 309.276C374.693 309.788 376.843 310.437 378.935 311.111C374.488 310.904 373.111 310.611 372.365 311.997L374.909 313.337C374.909 313.337 372.356 312.778 371.289 313.106C362.809 321.67 347.738 324.631 333.046 321.223C331.85 320.946 327.354 321.408 327.354 321.408L330.829 320.011L326.402 319.461L328.201 318.976L326.028 316.987ZM320.558 294.69L318.195 298.039L320.659 296.727L317.926 300.538L320.905 297.724L319.286 300.681C331.341 283.827 355.273 278.45 378.317 300.444C378.847 301.179 378.895 302.941 377.874 304.686C380.103 303.344 381.496 302.772 384.143 302.67L381.826 301.229L385.162 299.999L382.807 299.031C383.853 298.653 385.186 297.337 386.671 295.799C383.661 296.745 381.412 296.521 379.685 296.411C380.957 295.753 381.905 294.965 382.981 293.854C379.767 294.562 378.768 294.848 376.42 293.957L381.798 291.062C375.166 291.255 372.988 291.363 370.897 289.825L375.738 287.055C372.803 287.625 370.684 288.369 367.947 288.285L372.42 283.984C368.471 285.306 363.949 286.65 362.198 286.05C348.118 281.229 339.652 281.786 326.254 289.117L319.444 289.946C319.444 289.946 321.827 290.364 323.53 291.075C321.211 292.294 319.583 293.445 317.356 295.605L320.558 294.69Z" fill="black"/>
<path d="M380.097 362.247C380.174 411.257 340.503 451.06 291.486 451.128C242.478 451.207 202.682 411.539 202.605 362.519C202.53 313.511 242.198 273.715 291.216 273.638C340.226 273.563 380.024 313.231 380.097 362.247Z" fill="url(#paint11_radial)"/>
<path d="M368.647 236.814C368.647 279.343 334.167 313.823 291.638 313.823C249.109 313.823 214.629 279.343 214.629 236.814C214.629 194.285 249.109 159.805 291.638 159.805C334.167 159.805 368.647 194.285 368.647 236.814Z" fill="url(#paint12_radial)"/>
<path d="M186.035 285.222C246.066 237.688 287.288 278.665 271.666 278.032C269.218 277.963 242.135 254.513 186.035 285.222Z" fill="#A68469"/>
<path d="M397.241 285.222C378.977 270.762 360.193 261.398 336.4 262.615C305.708 264.72 303.9 283.247 314.87 276.551C320.989 272.815 329.658 269.994 338.725 269.66C358.279 268.511 378.792 275.13 397.241 285.222Z" fill="#A68469"/>
<path d="M285.836 317.351C285.836 317.351 285.957 334.869 284.828 338.279C282.344 345.771 271.356 363.136 272.749 367.952C274.916 375.44 285.548 375.987 290.921 376.249C296.065 376.502 306.523 376.128 308.208 371.261C308.895 369.281 307.414 364.227 307.414 364.227C307.414 364.227 302.65 369.129 291.427 368.584C288.223 368.43 283.013 365.283 282.954 360.845C282.875 354.83 286.925 347.93 287.651 341.96C288.201 337.426 285.836 317.351 285.836 317.351Z" fill="#E4B3AB"/>
<path d="M300.898 371.103C302.837 371.103 303.36 371.618 303.36 372.251C303.36 372.89 302.758 373.869 300.898 373.4C298.857 372.892 295.292 373.127 295.292 373.127C295.292 373.127 298.96 371.103 300.898 371.103ZM282.396 371.103C280.458 371.105 279.934 371.622 279.934 372.258C279.934 372.892 280.517 373.807 282.396 373.404C284.467 372.962 288.003 373.129 288.003 373.129C288.003 373.129 284.337 371.11 282.396 371.103ZM307.411 364.225C307.411 364.225 310.095 367.27 309.537 370.489C308.995 373.616 303.576 374.993 303.576 374.993C303.576 374.993 307.339 372.606 307.794 369.706C308.005 368.35 307.411 364.225 307.411 364.225ZM274.299 361.092C274.299 361.092 272.341 365.356 272.909 367.95C273.936 372.637 279.58 374.511 279.58 374.511C279.58 374.511 276.057 371.294 274.806 368.454C273.439 365.356 274.299 361.092 274.299 361.092Z" fill="#C5796D"/>
<path d="M300.804 366.493C302.683 365.092 302.87 364.293 302.483 363.772C302.095 363.248 300.969 362.916 299.396 364.606C297.662 366.467 293.891 367.84 293.891 367.84C293.891 367.84 298.925 367.895 300.804 366.493Z" fill="#FFF4F3"/>
<path opacity="0.1" d="M157.101 636.867L178.84 190.833L410.958 193.39L413.213 640.733C413.213 640.733 181.74 639.714 157.101 636.867ZM373.281 631.276C363.949 526.472 375.815 444.745 385.38 378.878C390.748 341.901 395.439 309.601 395.189 281.125C389.596 284.239 346.913 285.312 346.913 285.312C314.98 290.457 291.174 286.164 290.186 286.276C285.825 259.136 285.132 254.909 284.188 248.766C281.255 273.486 283.407 278.844 281.174 282.318C274.852 283.887 230.999 281.951 228.794 281.796C216.741 286.274 208.915 276.969 201.452 279.066C197.091 282.377 189.601 282.738 187.401 282.19C185.15 326.466 192.725 359.822 200.73 395.07C220.532 482.273 219.21 507.002 212.849 625.835C212.851 625.835 349.839 630.517 373.281 631.276Z" fill="#B56633"/>
<path d="M461.922 574.646C428.683 441.874 469.738 336.862 441.726 242.35C428.386 197.406 401.25 139.018 347.722 116.087C333.458 109.954 319.997 109.03 304.905 111.123C296.388 108.533 287.163 107.222 277.486 107.222C210.968 107.222 168.032 164.061 147.134 227.772C134.058 267.673 130.982 302.365 134.471 370.533C142.465 526.608 127.644 564.967 103.065 628.128C140.962 628.181 183.453 638.456 242.814 638.643C291.836 638.819 469.416 638.656 483.905 637.03C469.808 605.107 467.546 597.15 461.922 574.646ZM378.121 635.842C280.793 632.487 249.672 636.951 207.964 634.834C214.752 507.728 216.609 484.843 196.444 396.045C188.05 359.081 180.219 324.501 183.273 277.416C187.322 277.26 190.323 278.219 193.969 280.109V280.12C194.142 280.215 194.307 280.309 194.475 280.408C194.585 279.819 194.706 279.139 194.831 278.569L195.091 278.373L194.875 278.329C196.279 271.381 198.692 263.545 201.861 255.673L202.281 255.792C201.203 262.12 200.582 268.476 200.437 274.683L200.371 274.8C207.623 272.782 216.132 278.859 222.728 278.859C224.642 278.727 226.222 278.047 227.995 277.403C230.42 242.337 233.113 228.146 238.172 217.201L238.585 217.34C235.661 230.997 234.728 250.225 235.732 276.12L235.705 276.155C241.613 275.583 248.603 278.162 253.683 277.948C253.683 269.334 255.171 257.724 255.752 250.698L256.19 250.703C257.076 264.483 258.748 273.528 260.11 279.869C271.73 277.262 271.202 278.96 277.189 278.615C277.605 278.595 278.018 278.553 278.412 278.474L278.478 278.373L278.258 278.391C276.769 260.67 283.391 223.041 285.083 214.172L285.519 214.214C285.501 231.728 287.099 239.131 293.865 281.427C297.653 280.994 304.217 283.284 308.644 283.805C308.644 275.035 308.615 275.645 308.666 270.934H309.104C309.176 275.376 309.416 279.711 310.721 283.988C317.671 284.133 322.591 280.901 329.077 281.519C329.889 245.389 326.756 226.341 324.904 209.287L325.335 209.206C334.312 242.694 337.331 278.872 337.579 282.023C338.415 281.962 341.447 281.731 342.994 281.482C343.942 274.571 347.709 234.476 345.874 223.732L346.301 223.631C352.116 242.533 351.43 257.191 351.854 279.88C357.47 278.153 366.609 280.635 373.01 279.913C372.13 262.973 371.784 247.64 367.617 233.173L368.033 233.035C373.076 246.172 377.065 262.071 379.003 279.132L379.102 279.077C393.281 280.177 390.834 277.055 399.431 274.369C402.485 355.485 361.921 465.012 378.121 635.842Z" fill="#B56633"/>
<path d="M468.376 637.668C439.172 638.134 383.393 637.056 378.119 635.844C371.688 568.032 374.214 509.91 379.393 459.359C387.233 382.839 401.165 323.713 399.442 274.898C399.778 271.638 405.684 274.027 407.136 272.489C397.235 208.132 375.862 167.568 342.242 140.672C483.903 239.98 374.328 432.283 393.268 508.502C396.509 468.068 421.898 355.833 428.052 333.854C417.05 413.064 390.647 505.474 434.652 580.283C428.864 547.484 428.153 512.993 428.065 479.773C429.761 535.03 450.598 585.812 468.376 637.668ZM200.71 258.702C201.093 257.692 201.45 256.685 201.859 255.673L202.279 255.791C201.201 262.119 200.58 268.476 200.435 274.683L200.369 274.799C202.193 274.293 204.096 274.298 206.028 274.588C207.04 247.059 212.281 218.814 227.831 197.436C208.886 212.935 204.772 236.524 200.71 258.702ZM293.838 182.034C284.333 199.463 282.811 219.17 281.061 238.698C282.613 227.699 284.331 218.108 285.084 214.174L285.519 214.215C285.502 231.729 287.099 239.133 293.865 281.429C295.143 281.284 296.747 281.46 298.468 281.759C290.725 249.237 285.711 216.574 293.838 182.034ZM307.275 283.583C307.737 283.662 308.217 283.755 308.644 283.805C308.644 275.035 308.615 275.644 308.666 270.934H309.104C309.176 275.376 309.416 279.71 310.721 283.988C311.429 284.003 312.103 283.961 312.774 283.915C311.458 269.567 311.44 256.28 311.44 241.441C307.218 256.216 309.062 268.971 307.275 283.583ZM328.321 281.493C328.576 281.506 328.82 281.493 329.08 281.519C329.892 245.389 326.759 226.341 324.906 209.287L325.337 209.205C334.314 242.693 337.333 278.872 337.582 282.023C338.184 281.979 339.938 281.845 341.447 281.68C338.93 246.311 333.549 211.311 315.841 179.832C324.131 212.994 324.616 248.106 328.321 281.493ZM370.801 280.043C371.565 280.03 372.308 279.996 373.012 279.915C372.132 262.975 371.787 247.642 367.62 233.175L368.035 233.036C373.078 246.174 377.067 262.073 379.006 279.134L379.105 279.079C380.825 279.213 382.293 279.281 383.574 279.299C381.158 250.26 369.19 222.968 355.443 197.436C363.919 224.97 370.335 252.506 370.801 280.043ZM346.292 237.919C346.46 231.844 346.378 226.68 345.877 223.732L346.303 223.63C352.119 242.533 351.432 257.191 351.857 279.88C353.078 279.506 354.482 279.354 355.971 279.299C356.147 251.323 351.584 223.584 342.244 197.432C343.683 210.4 346.053 224.304 346.292 237.919ZM260.834 223.839C252.515 240.478 254.018 259.083 250.491 277.792C251.611 277.919 252.685 277.988 253.681 277.946C253.681 269.332 255.169 257.721 255.75 250.696L256.188 250.7C257.074 264.48 258.746 273.526 260.108 279.867C261.521 279.55 262.749 279.299 263.836 279.097C259.998 261.389 256.903 243.492 260.834 223.839ZM245.433 201.837C226.893 222.436 227.639 252.678 226.004 278.12C226.658 277.893 227.311 277.651 227.993 277.402C230.418 242.337 233.111 228.145 238.17 217.201L238.583 217.34C235.659 230.997 234.726 250.225 235.73 276.12L235.703 276.155C237.349 275.996 239.078 276.091 240.828 276.293C239.813 250.762 235.606 225.421 245.433 201.837ZM249.833 151.231C194.497 187.502 164.023 254.643 172.824 316.25C183.826 397.66 197.027 476.869 186.026 558.278C192.627 490.07 181.625 421.862 168.424 353.654C179.425 428.463 179.425 503.272 159.623 575.88C166.613 539.178 159.726 503.866 156.595 467.736C156.905 523.028 143.523 577.768 123.93 628.753C160.342 630.614 204.063 635.941 207.962 634.838C214.75 507.732 216.607 484.847 196.442 396.049C188.048 359.085 180.217 324.505 183.271 277.42C183.271 277.418 188.021 213.043 249.833 151.231Z" fill="#A6531E"/>
<path d="M213.907 206.272C235.729 166.936 248.469 156.448 279.827 138.718C280.214 138.489 278.282 139.684 275.103 141.644C244.499 160.481 230.158 179.352 213.907 206.272ZM370.279 195.26C390.44 235.263 391.787 262.713 390.137 249.617C388.376 238.638 387.014 225.734 376.248 200.778C364.435 174.868 345.286 149.002 320.619 133.8C334.404 143.154 350.954 157.845 370.279 195.26ZM272.995 209.832C268.9 238.711 269.697 261.252 269.723 259.492C269.855 237.498 274.751 207.346 280.22 185.77C286.102 164.65 292.54 153.163 294.509 148.925C285.935 165.02 276.674 185.702 272.995 209.832ZM316.82 244.057C316.967 247.424 317.077 249.466 317.059 249.061C315.823 235.778 320.945 212.442 304.971 163.889C311.583 187.117 315.493 206.888 316.82 244.057ZM358.228 254.242C358.952 258.898 359.432 261.723 359.348 261.162C356.734 245.329 357.28 216.919 342.175 184.232C332.82 164.076 322.677 154.285 318.703 149.673C333.557 167.847 347.716 186.492 358.228 254.242ZM246.099 247.408C247.274 228.889 248.57 226.235 249.784 220.64C257.611 189.57 262.698 179.594 272.181 163.777C243.3 207.982 246.099 247.408 246.099 247.408ZM154.133 253.039C154.08 254.075 154.097 259.226 154.115 258.361C155.4 214.257 207.548 137.972 242.851 125.065C208.721 136.025 158.161 199.342 154.133 253.039ZM155.635 340.996C157.147 353.346 159.191 362.933 159.015 361.837C150.654 322.411 161.44 232.973 186.606 201.064C168.302 223.054 149.446 280.41 155.635 340.996ZM146.986 461.949C145.453 470.741 145.635 469.557 146.623 465.003C155.037 424.595 147.09 353.547 143.692 318.981C143.695 316.767 150.106 426.945 146.986 461.949ZM391.01 164.256C396.009 171.293 407.257 185.152 419.404 215.588C428.681 238.799 415.578 203.533 410.955 193.39C393.844 153.739 370.427 134.764 331.401 120.093C365.324 134.694 375.36 145.116 391.01 164.256ZM424.421 335.243C421.838 360.299 427.044 318.437 427.587 312.987C432.553 269.055 424.485 239.371 408.328 211.254C422.049 237.705 430.98 263.609 424.421 335.243ZM438.186 493.082C439.73 500.651 440.778 505.21 440.586 504.304C430.137 450.534 439.482 312.428 439.548 307.409C438.929 321.031 423.946 427.884 438.186 493.082Z" fill="#C47B4B"/>
<path d="M462.134 574.593C428.8 441.434 470.055 337.164 441.935 242.289C426.399 189.945 397.578 137.204 347.808 115.884C332.759 109.415 318.831 108.931 304.969 110.911C288.971 106.049 268.753 105.301 248.179 111.065C194.668 126.005 163.249 177.931 146.923 227.701C134.579 265.369 130.575 298.769 134.249 370.542C142.104 523.882 128.1 563.187 102.742 628.346C140.716 628.346 183.269 638.674 242.81 638.861C291.561 639.045 472.072 638.867 484.222 637.21C470.171 605.397 467.828 597.368 462.134 574.593ZM351.065 634.834C288.954 632.964 249.127 636.396 208.862 634.66C208.64 634.649 208.418 634.632 208.196 634.623C209.485 610.444 212.207 578.048 212.823 522.313C213.817 414.723 177.517 370.271 183.48 277.627C183.98 277.609 184.486 277.579 184.97 277.601C185.52 277.623 186.048 277.689 186.554 277.777C189.238 278.151 191.614 279.119 193.749 280.241C193.749 280.307 193.749 280.373 193.727 280.417C193.771 280.373 193.793 280.329 193.815 280.285C194.101 280.439 194.365 280.593 194.651 280.769C194.651 280.659 194.673 280.549 194.695 280.439C194.805 279.845 194.915 279.229 195.047 278.613C195.047 278.525 195.069 278.459 195.091 278.371C196.543 271.176 199.029 263.299 202.066 255.752C200.878 262.727 200.349 269.064 200.217 274.674C200.217 274.806 200.195 274.938 200.217 275.07C200.746 274.916 201.274 274.784 201.802 274.718C208.688 273.75 216.653 279.163 222.88 279.075C224.354 278.965 225.762 278.459 227.171 277.953C227.523 277.799 227.853 277.689 228.205 277.557C228.887 267.633 230.009 257.204 230.515 252.056C231.681 240.196 233.397 228.051 238.37 217.291C235.972 228.491 234.343 246.005 235.51 276.126C235.51 276.214 235.532 276.302 235.532 276.39C235.972 276.346 236.434 276.302 236.896 276.302C238.7 276.236 240.57 276.434 242.44 276.72C242.66 276.742 242.88 276.786 243.078 276.808C246.445 277.358 249.833 278.129 253.134 278.173C253.398 278.173 253.64 278.173 253.904 278.151C253.904 278.063 253.904 277.997 253.904 277.909C253.926 273.398 254.3 267.479 255.202 258.7C255.51 256.038 255.752 253.376 255.972 250.713C256.83 264.047 258.392 272.914 259.91 279.977C259.91 280.021 259.932 280.087 259.932 280.131C260.24 280.065 260.526 279.999 260.79 279.933C265.037 278.855 265.235 278.635 270.802 278.657C273.354 278.657 275.334 278.943 277.204 278.833C277.644 278.811 278.085 278.767 278.503 278.679C278.503 278.569 278.481 278.459 278.481 278.371C278.106 273.926 277.952 269.812 278.084 267.061C278.393 260.241 281.517 234.057 285.301 214.211C285.279 236.06 288.822 248.689 291.682 269.086C292.254 273.178 292.826 277.248 293.618 281.253C293.64 281.385 293.662 281.517 293.682 281.671C293.97 281.627 294.278 281.605 294.584 281.605C298.633 281.539 303.385 283.255 308.028 283.937C308.314 283.981 308.6 284.025 308.864 284.047C308.864 283.717 308.864 283.409 308.864 283.101C308.864 280.791 308.864 278.965 308.864 278.173C308.842 275.378 308.864 272.98 308.886 270.934C308.974 276.412 309.304 279.493 310.272 283.211C310.36 283.519 310.448 283.849 310.56 284.201C310.91 284.201 311.262 284.223 311.594 284.223C311.922 284.201 312.232 284.201 312.541 284.179C316.479 283.937 320.241 282.595 324.114 281.935C325.478 281.693 326.754 281.605 327.964 281.671C328.404 281.671 328.844 281.715 329.287 281.759C329.309 281.583 329.309 281.385 329.287 281.209C329.35 277.777 329.35 273.728 329.309 268.887C329.023 237.358 327.989 235.642 325.128 209.261C334.578 244.515 337.384 282.256 337.384 282.256C337.384 282.256 341.445 281.975 343.197 281.671C344.16 274.846 347.932 234.438 346.097 223.694C351.883 242.506 351.223 257.138 351.643 279.977C351.665 280.043 351.665 280.109 351.665 280.175C352.062 280.043 352.455 279.933 352.854 279.867C358.728 278.657 365.967 280.703 372.656 280.175C372.854 280.153 373.052 280.131 373.25 280.109C373.25 280.043 373.228 279.977 373.228 279.889C372.348 261.583 371.82 246.929 367.837 233.111C372.636 245.609 376.814 261.715 378.729 278.569C378.729 278.613 378.751 278.657 378.751 278.723C378.751 278.833 378.775 278.943 378.775 279.053C378.797 279.119 378.797 279.185 378.819 279.273C378.995 279.295 379.171 279.295 379.369 279.317C382.075 279.559 384.804 279.735 387.4 279.427C391.787 278.883 395.129 275.946 399.235 274.663C400.703 308.84 391.219 368.828 387.532 393.484C385.686 406.15 383.855 418.234 382.462 429.128C371.954 510.04 373.118 585.465 377.886 635.613C369.628 635.384 360.722 635.127 351.065 634.834ZM426.6 636.795C422.639 621.195 418.547 604.341 417.227 598.202C406.709 549.62 402.529 471.247 412.056 422.864C402.131 465.991 399.842 541.083 415.046 600.952C417.136 609.181 420.899 622.493 425.257 636.772C412.868 636.533 397.752 636.167 379.18 635.65C376.993 606.202 375.12 561.229 378.515 511.51C383.477 431.273 402.527 321.898 399.99 274.461C400.593 274.296 401.198 274.131 401.825 274.014C402.353 273.904 402.881 273.816 403.409 273.728C405.521 273.398 407.677 273.178 409.79 272.892C410.054 272.848 410.34 272.804 410.604 272.76C410.558 272.562 410.538 272.364 410.538 272.144C408.91 256.896 404.245 223.386 389.701 194.167C387.215 189.15 384.597 184.024 381.164 179.579C374.476 170.976 351.813 144.177 341.846 140.613C353.749 147.103 371.461 169.766 379.448 180.921C388.029 193.089 404.795 235.598 409.284 269.108C409.418 270.142 409.572 271.198 409.702 272.232C407.567 272.408 405.389 272.452 403.255 272.738C402.727 272.804 402.219 272.87 401.715 272.98C400.791 273.156 399.888 273.376 399.008 273.684C394.762 275.18 391.42 278.459 386.819 278.965C384.379 279.251 381.846 279.185 379.34 279.075C379.34 278.877 379.318 278.679 379.294 278.481C379.318 278.459 379.36 278.459 379.382 278.437C379.36 278.437 379.318 278.437 379.294 278.459C378.68 268.469 377.556 259.096 375.004 249.019C373.73 244.025 369.129 231.769 363.782 222.066C362.902 220.482 362.022 218.986 361.12 217.578C361.78 219.052 362.418 220.548 362.99 222.088C368.317 235.928 370.187 253.024 372.63 279.911C366.491 279.955 358.966 278.085 352.871 279.625C353.377 259.998 353.751 242.836 346.028 221.824C345.83 221.23 345.613 220.658 345.39 220.064C345.39 220.548 345.39 221.01 345.39 221.494C345.43 245.087 344.411 262.417 342.44 281.561C342.435 281.561 338.33 282.019 338.33 282.019C337.711 268.331 336.468 250.273 334.589 240.152C331.685 224.552 328.14 212.539 324.424 202.66C323.786 200.9 323.148 199.249 322.488 197.643C322.532 198.677 322.598 199.711 322.664 200.746C322.708 201.406 322.75 202.044 322.796 202.704C325.81 245.015 327.306 268.073 327.922 281.121C326.976 281.077 325.92 281.099 324.732 281.231C320.486 281.671 316.349 282.793 312.081 283.189C311.861 283.211 311.641 283.233 311.399 283.211C309.988 275.752 309.614 269.24 309.374 261.935C309.35 261.913 309.35 261.869 309.374 261.847C309.35 261.429 309.328 261.033 309.328 260.615C309.152 261.473 308.998 262.353 308.866 263.211C308.074 268.073 307.744 273.024 307.832 278.019C307.854 278.877 307.92 280.703 308.008 282.991C303.671 282.397 298.721 280.791 294.52 281.143C293.618 274.96 293.33 269.812 293.198 268.403C292.098 256.94 287.719 229.327 287.323 204.618C287.301 202.792 287.301 200.988 287.323 199.205C287.257 199.381 287.191 199.579 287.125 199.777C286.597 201.384 286.047 203.122 285.519 205.014C280.173 223.65 274.914 255.246 277.158 278.437C273.682 278.481 272.34 276.808 260.744 279.757C259.292 269.988 257.73 258.37 256.718 242.55C256.608 241.054 256.52 239.492 256.454 237.908C256.168 239.426 255.86 240.966 255.574 242.572C253.703 252.958 252.119 264.949 253.109 277.865C248.775 277.667 245.695 277.028 243.12 276.544C242.922 276.5 242.702 276.456 242.504 276.412C240.502 276.038 238.764 275.774 236.894 275.928C236.982 255.708 237.994 224.354 239.732 215.465C239.842 214.937 239.952 214.409 240.062 213.881C240.15 213.463 240.238 213.045 240.348 212.627C239.82 213.441 239.336 214.233 238.874 215.069C238.874 215.069 238.874 215.069 238.874 215.091C232.559 226.247 230.073 239.492 228.577 252.188C228.004 256.918 227.322 267.567 227.168 277.843C225.716 278.239 224.264 278.591 222.812 278.635C217.597 279.031 211.393 272.848 201.843 274.322C202.416 268.579 203.362 261.363 204.902 252.078C205.188 250.383 205.496 248.689 205.848 247.017C206.112 245.785 206.376 244.553 206.662 243.321C210.028 228.997 215.573 215.399 222.702 202.484C212.053 219.954 206.244 236.06 203.208 250.009C198.587 259.624 195.089 270.142 193.79 279.889C191.678 278.613 189.28 277.535 186.574 277.16C186.068 277.05 185.562 277.006 185.033 277.006C183.559 276.896 181.997 277.028 180.325 277.447C182.657 266.423 186.508 253.86 190.71 241.89C190.82 241.582 190.93 241.296 191.018 240.988C196.101 226.665 201.601 213.309 205.584 204.706C214.495 185.432 226.222 174.078 244.396 154.32C227.146 171.548 212.955 184.288 204.11 201.626C198.961 211.725 193.636 221.978 190.16 232.803C187.256 241.912 181.381 260.967 178.763 277.887C178.719 278.063 178.697 278.239 178.675 278.393C179.203 278.217 179.709 278.107 180.215 277.997C181.28 277.774 182.281 277.678 183.26 277.631C179.506 323.997 185.518 364.31 200.798 429.055C200.798 429.055 203.711 444.041 205.203 455.474C210.061 497.611 208.917 519.442 208.493 595.302C208.512 607.337 207.478 621.679 206.922 634.552C193.89 633.908 180.912 632.726 167.937 631.47C169.94 625.331 172.184 619.17 173.944 613.692C184.439 581.15 191.436 505.989 176.651 423.521C185.958 486.913 183.735 552.547 175 602.338C173.526 610.743 169.852 621.261 166.991 631.382C152.69 629.996 138.41 628.585 124.064 627.839C117.046 627.465 110.511 627.311 104.086 627.201C140.104 540.489 144.703 500.027 139.884 353.138C138.388 307.24 136.804 263.939 158.3 208.779C193.879 117.49 259.578 99.0079 303.165 111.197C303.581 111.285 304.001 111.417 304.419 111.527C305.013 111.461 305.608 111.373 306.202 111.307C326.51 108.887 343.43 112.099 364.728 126.995C416.698 163.343 442.199 233.026 445.852 296.349C449.482 359.232 436.765 438.309 448.008 518.245C451.925 546.056 459.097 573.139 467.48 599.918C468.448 603.241 475.907 620.469 482.794 636.286C475.005 637.081 462.508 637.477 426.6 636.795Z" fill="#873500"/>
<path opacity="0.2" d="M398.879 298.38C398.725 309.755 393.686 321.746 387.217 331.339C380.925 340.668 364.533 343.991 352.409 343.991C342.508 343.991 333.685 341.967 328.162 338.424C317.755 331.735 306.578 315.079 304.114 299.194C326.49 285.75 372.63 285.75 398.879 298.38ZM184.398 296.839C184.09 308.677 189.304 321.328 196.059 331.339C202.352 340.668 218.744 343.991 230.867 343.991C240.768 343.991 249.591 341.967 255.114 338.424C265.213 331.933 276.016 316.07 278.899 300.624C255.114 286.674 209.349 285.156 184.398 296.839Z" fill="white"/>
<path opacity="0.4" d="M398.878 298.38C372.629 285.772 326.49 285.75 304.135 299.172C303.761 296.751 303.585 294.353 303.629 291.999C304.113 273.847 330.076 267.4 352.167 267.4C367.745 267.4 386.139 270.634 392.08 277.829C397.052 283.88 398.988 290.987 398.878 298.38ZM231.109 267.4C215.531 267.4 197.137 270.634 191.196 277.829C186.576 283.44 184.573 289.997 184.397 296.839C209.37 285.156 255.114 286.674 278.876 300.602C279.427 297.697 279.713 294.815 279.625 291.999C279.14 273.847 253.177 267.4 231.109 267.4Z" fill="white"/>
<path d="M411.508 273.913C410.187 268.611 349.878 257.895 318.569 268.655C311 271.251 305.763 273.561 302.639 276.84V276.796C301.539 278.732 298.789 279.392 296.83 278.666C293.31 277.324 289.745 277.39 286.445 278.666C284.509 279.414 281.737 278.732 280.636 276.796V276.84C277.512 273.561 272.297 271.273 264.707 268.655C233.397 257.895 173.088 268.633 171.768 273.913C171.262 276.003 170.58 287.247 170.624 291.273C170.668 295.3 173.176 294.992 176.938 296.752C178.391 297.434 181.427 302.627 181.713 304.761C183.099 314.75 187.082 324.013 193.286 333.21C203.891 348.92 241.054 351.406 256.896 341.219C267.853 334.178 279.206 317.61 282.221 301.13C282.815 297.852 283.365 295.3 283.783 293.099L283.805 293.209C284.597 290.503 288.139 289.183 291.66 289.117C295.18 289.183 298.723 290.503 299.515 293.209L299.537 293.099C299.933 295.3 300.505 297.852 301.099 301.13C304.113 317.61 315.466 334.178 326.424 341.219C342.266 351.406 379.428 348.92 390.033 333.21C396.238 324.013 400.22 314.75 401.606 304.761C401.893 302.605 404.929 297.412 406.381 296.752C410.143 294.992 412.674 295.322 412.696 291.273C412.696 287.247 412.014 275.981 411.508 273.913ZM254.497 337.479C240.46 346.5 206.048 344.167 196.961 330.724C186.619 315.366 179.755 293.452 192.032 278.534C203.869 264.166 277.71 262.428 278.524 292.021C279.008 309.403 266.247 329.932 254.497 337.479ZM386.315 330.724C377.228 344.189 342.816 346.5 328.778 337.479C317.029 329.932 304.267 309.403 304.751 292.021C305.565 262.428 379.406 264.166 391.243 278.534C403.521 293.43 396.656 315.366 386.315 330.724Z" fill="#26120B"/>
<path d="M171.438 276.289C171.548 275.189 171.658 274.331 171.768 273.891C173.088 268.588 233.397 257.873 264.707 268.632C272.276 271.228 277.512 273.539 280.637 276.817V276.773C280.637 276.751 232.231 251.206 171.438 276.289ZM410.276 295.123C411.75 294.463 412.63 293.583 412.652 291.229C412.696 287.224 412.014 275.959 411.508 273.869C410.188 268.566 349.879 257.851 318.569 268.61C311.352 271.096 306.27 273.319 303.101 276.355C319.647 263.264 387.085 260.645 405.171 278.599C408.912 282.34 410.1 289.425 410.276 295.123Z" fill="#351D15"/>
</g>
<defs>
<linearGradient id="paint0_linear" x1="300" y1="-75" x2="300" y2="675" gradientUnits="userSpaceOnUse">
<stop stop-color="#151371"/>
<stop offset="0.453125" stop-color="#FF00B8"/>
<stop offset="0.96875" stop-color="#FFC700"/>
</linearGradient>
<linearGradient id="paint1_linear" x1="439" y1="245" x2="439" y2="644" gradientUnits="userSpaceOnUse">
<stop stop-color="#FF00B8"/>
<stop offset="1" stop-color="#F0DB0A" stop-opacity="0"/>
</linearGradient>
<linearGradient id="paint2_linear" x1="194" y1="161" x2="194" y2="560" gradientUnits="userSpaceOnUse">
<stop stop-color="#FF00B8"/>
<stop offset="1" stop-color="#F0DB0A" stop-opacity="0"/>
</linearGradient>
<linearGradient id="paint3_linear" x1="291.594" y1="490.44" x2="291.594" y2="413.609" gradientUnits="userSpaceOnUse">
<stop stop-color="#E4B3AB" stop-opacity="0.8"/>
<stop offset="0.7" stop-color="#C5796D"/>
</linearGradient>
<linearGradient id="paint4_linear" x1="291.637" y1="423.838" x2="291.637" y2="415.037" gradientUnits="userSpaceOnUse">
<stop offset="0.1" stop-color="#EBC3BD"/>
<stop offset="1" stop-color="#E4B3AB"/>
</linearGradient>
<radialGradient id="paint5_radial" cx="0" cy="0" r="1" gradientUnits="userSpaceOnUse" gradientTransform="translate(234.164 303.961) rotate(179.978) scale(29.9261 29.9176)">
<stop stop-color="white"/>
<stop offset="0.544" stop-color="#FDFEFE"/>
<stop offset="0.74" stop-color="#F6F8F9"/>
<stop offset="0.879" stop-color="#EAEFF2"/>
<stop offset="0.992" stop-color="#D9E3E8"/>
<stop offset="1" stop-color="#D8E2E7"/>
</radialGradient>
<radialGradient id="paint6_radial" cx="0" cy="0" r="1" gradientUnits="userSpaceOnUse" gradientTransform="translate(239.888 299.286) rotate(1.19182) scale(39.3808 31.5031)">
<stop stop-color="#E4B3AB"/>
<stop offset="0.7" stop-color="#E4B3AB" stop-opacity="0.3"/>
<stop offset="1" stop-color="#F3D4CF" stop-opacity="0"/>
</radialGradient>
<radialGradient id="paint7_radial" cx="0" cy="0" r="1" gradientUnits="userSpaceOnUse" gradientTransform="translate(234.151 321.143) rotate(-3.03947) scale(32.7279 33.2174)">
<stop offset="0.9" stop-opacity="0"/>
<stop offset="1" stop-opacity="0.3"/>
</radialGradient>
<radialGradient id="paint8_radial" cx="0" cy="0" r="1" gradientUnits="userSpaceOnUse" gradientTransform="translate(349.112 303.961) rotate(0.0216374) scale(29.9261 29.9176)">
<stop stop-color="white"/>
<stop offset="0.544" stop-color="#FDFEFE"/>
<stop offset="0.74" stop-color="#F6F8F9"/>
<stop offset="0.879" stop-color="#EAEFF2"/>
<stop offset="0.992" stop-color="#D9E3E8"/>
<stop offset="1" stop-color="#D8E2E7"/>
</radialGradient>
<radialGradient id="paint9_radial" cx="0" cy="0" r="1" gradientUnits="userSpaceOnUse" gradientTransform="translate(343.388 299.286) rotate(178.808) scale(39.3808 31.5031)">
<stop stop-color="#E4B3AB"/>
<stop offset="0.7" stop-color="#E4B3AB" stop-opacity="0.3"/>
<stop offset="1" stop-color="#F3D4CF" stop-opacity="0"/>
</radialGradient>
<radialGradient id="paint10_radial" cx="0" cy="0" r="1" gradientUnits="userSpaceOnUse" gradientTransform="translate(349.125 321.143) rotate(-176.961) scale(32.7279 33.2174)">
<stop offset="0.9" stop-opacity="0"/>
<stop offset="1" stop-opacity="0.3"/>
</radialGradient>
<radialGradient id="paint11_radial" cx="0" cy="0" r="1" gradientUnits="userSpaceOnUse" gradientTransform="translate(291.638 362.231) scale(88.0102)">
<stop stop-color="#FFF4F3" stop-opacity="0.5"/>
<stop offset="0.9" stop-color="#F3D4CF" stop-opacity="0"/>
</radialGradient>
<radialGradient id="paint12_radial" cx="0" cy="0" r="1" gradientUnits="userSpaceOnUse" gradientTransform="translate(291.638 239.017) scale(79.2092)">
<stop stop-color="#FFF4F3" stop-opacity="0.5"/>
<stop offset="0.9" stop-color="#F3D4CF" stop-opacity="0"/>
</radialGradient>
<clipPath id="clip0">
<rect width="600" height="600" fill="white"/>
</clipPath>
</defs>
</svg>
